<?xml version="1.0" encoding="UTF-8" standalone="no"?><!DOCTYPE svg PUBLIC "-//W3C//DTD SVG 1.1//EN" "http://www.w3.org/Graphics/SVG/1.1/DTD/svg11.dtd"><svg width="100%" height="100%" viewBox="0 0 1101 711" version="1.1" xmlns="http://www.w3.org/2000/svg" xmlns:xlink="http://www.w3.org/1999/xlink" xml:space="preserve" xmlns:serif="http://www.serif.com/" style="fill-rule:evenodd;clip-rule:evenodd;stroke-linejoin:round;stroke-miterlimit:2;"><rect id="Mesa-de-trabajo1" serif:id="Mesa de trabajo1" x="0" y="0" width="1100.218" height="710.077" style="fill:none;"/><path d="M180.582,529.188l-30.533,152.526c-2.007,10.028 -10.814,17.246 -21.041,17.246l-42.453,0c-6.421,0 -12.505,-2.876 -16.581,-7.837c-4.076,-4.962 -5.716,-11.488 -4.469,-17.787l124.674,-629.921c1.933,-9.767 10.33,-16.921 20.28,-17.278l44.193,-1.586c1.775,-0.064 3.532,0.093 5.235,0.456c1.931,-0.444 3.936,-0.678 5.988,-0.678l114.673,0c6.972,-0 13.667,2.731 18.65,7.607l125.534,122.834l526.655,-0c8.125,-0 15.808,3.705 20.867,10.063c5.059,6.358 6.944,14.676 5.118,22.594l-106.073,460.127c-2.79,12.102 -13.565,20.676 -25.985,20.676l-87.438,0c-7.629,-0 -14.893,-3.267 -19.954,-8.976l-115.316,-130.066l-542.026,0Zm776.513,-57.429l60.781,-263.656l-504.018,0c-6.972,-0 -13.667,-2.731 -18.65,-7.607l-125.534,-122.834l-81.799,0l-50.243,259.451l362.701,0c2.257,0 4.434,0.832 6.115,2.338l148.958,133.381l201.69,-1.072Zm-500.161,-199.545l0,10.589c0,3.837 -3.115,6.951 -6.951,6.951l-10.57,0c-3.837,0 -6.951,-3.115 -6.951,-6.951l0,-10.589c0,-3.837 3.115,-6.951 6.951,-6.951l10.57,0c3.837,0 6.951,3.115 6.951,6.951Zm-167.544,-85.766l-0.004,-0.011c-0.549,-1.334 -0.524,-2.476 -0.023,-3.423c0.547,-1.033 1.471,-1.579 2.807,-1.579l24.985,0c1.061,0 2.072,0.337 3.027,1.026c0.955,0.69 1.582,1.519 1.903,2.473l16.834,47.695l0.012,0.038c0.132,0.44 0.275,0.742 0.605,0.742c0.33,0 0.473,-0.302 0.605,-0.742l0.007,-0.023l14.694,-44.35c0.321,-1.059 0.955,-1.937 1.909,-2.627c0.948,-0.685 2.001,-1.026 3.16,-1.026l17.77,0c1.159,0 2.212,0.342 3.16,1.026c0.959,0.693 1.594,1.575 1.914,2.641l0.001,0.002l14.697,49.434c0.132,0.44 0.275,0.742 0.605,0.742c0.356,0 0.558,-0.309 0.748,-0.776l15.353,-52.736c0.01,-0.036 0.023,-0.071 0.039,-0.106c0.414,-0.93 1.08,-1.736 2.011,-2.408c0.948,-0.685 2.001,-1.026 3.16,-1.026l24.852,-0c1.359,0 2.264,0.564 2.758,1.614c0.451,0.957 0.508,1.943 0.172,2.951l-32.334,99.273l-0.019,0.051c-0.415,1.038 -1.088,1.896 -2.023,2.571c-0.948,0.685 -2.001,1.026 -3.16,1.026l-20.442,0c-1.159,0 -2.212,-0.342 -3.16,-1.026c-0.959,-0.693 -1.594,-1.576 -1.914,-2.641l-14.697,-49.302c-0.132,-0.44 -0.275,-0.742 -0.605,-0.742c-0.33,0 -0.473,0.302 -0.605,0.742l-14.697,49.302c-0.32,1.066 -0.955,1.949 -1.914,2.641c-0.948,0.685 -2.001,1.026 -3.16,1.026l-20.442,-0c-1.175,0 -2.245,-0.394 -3.206,-1.195c-0.951,-0.793 -1.514,-1.628 -1.735,-2.473l-33.647,-98.805Z" style="fill:#e2e8f0;"/></svg>